<svg xmlns="http://www.w3.org/2000/svg" height="181.613" width="180.681"><path d="M89.847 14.987L18.713 85.933l16.346 93.536 34.8-.233-.457-68.478a1.139 1.139 0 011.131-1.146l39.885-.266a1.139 1.139 0 011.146 1.13l.457 68.479 34.8-.233 15.095-93.746zM63.302 149.465a1.138 1.138 0 011.035 1.628l-5.484 11.494a1.139 1.139 0 01-1.02.648l-18.19.122a1.11 1.11 0 01-.266-.029 1.137 1.137 0 01-.763-.6l-5.638-11.42a1.139 1.139 0 011.014-1.642l3.761-.026-.153-22.931-.161-24.07a1.141 1.141 0 011.131-1.146l19.513-.131a1.142 1.142 0 011.147 1.131l.313 47zm41.438-71.868a20.036 20.036 0 115.774-14.207 19.908 19.908 0 01-5.774 14.207zm43.725 71.834a1.137 1.137 0 01.067 1.1l-5.485 11.494a1.14 1.14 0 01-1.02.648l-9.095.061-9.094.061a1.173 1.173 0 01-.266-.03 1.14 1.14 0 01-.763-.6l-5.638-11.419a1.14 1.14 0 011.013-1.643l3.762-.025-.154-22.93-.16-24.069a1.139 1.139 0 011.13-1.146l19.513-.131a1.142 1.142 0 011.147 1.131l.314 47 3.76-.025a1.136 1.136 0 01.969.523z" fill="#fff8e9"/><path d="M117.798 10.415l16.922-.118.034 4.928-16.922.118z" fill="#94a727"/><path d="M117.906 26.539l17.033 16.612-.171-25.64-16.922.113z" fill="#fff8e9"/><path d="M89.032 12.584a1.139 1.139 0 011.6-.011l73.076 70.961 12.276 2.822-60.007-58.524-.008-.008-26.2-25.556L4.68 87.5l12.237-2.985z" fill="#94a727"/><path d="M142.617 151.213l-9.754.065-9.752.065h-.008l-3.077.021 4.519 9.15 16.763-.112 4.395-9.209-3.079.021z" fill="#cedd3e"/><path d="M108.18 62.267a17.513 17.513 0 00-16.682-16.442l.111 16.553zM91.624 64.655l.111 16.562a17.755 17.755 0 0016.452-16.672zM72.784 64.78a17.757 17.757 0 0016.674 16.452l-.111-16.562zM89.217 45.831a17.755 17.755 0 00-16.452 16.672l16.563-.11zM124.077 127.264l7.479-.052.153 21.794-7.48.052zM123.917 103.194l7.48-.05.145 21.794-7.48.05zM133.673 103.129l7.479-.052.153 21.793-7.48.052zM133.833 127.199l7.48-.05.146 21.794-7.48.05z" fill="#c4d7e9"/><path d="M58.417 151.775l-9.755.065-9.754.065h-.006l-3.078.021 4.518 9.151 16.764-.113 4.395-9.209-3.08.021z" fill="#cedd3e"/><path d="M77.856 161.884l25.262-.169.065 9.666-25.262.169z" fill="#e8a91b"/><path d="M49.639 127.762l7.479-.05.146 21.794-7.48.05z" fill="#c4d7e9"/><path d="M71.689 111.881l.45 67.34 18.8-.126 18.8-.125-.449-67.34zm3.3 35.5a4.885 4.885 0 114.918 4.853 4.985 4.985 0 01-1.149-.127 4.889 4.889 0 01-3.769-4.726zm30.4 13.176l.08 11.943a1.138 1.138 0 01-1.131 1.146l-27.54.184a1.171 1.171 0 01-.265-.03 1.137 1.137 0 01-.881-1.1l-.079-11.942a1.14 1.14 0 011.13-1.147l27.54-.184a1.138 1.138 0 011.145 1.134zm-.529-29.261a1.144 1.144 0 01-.8.34l-27.54.184a1.186 1.186 0 01-.266-.03 1.143 1.143 0 01-.881-1.1l-.079-11.943a1.14 1.14 0 011.131-1.146l27.539-.184a1.136 1.136 0 011.146 1.131l.08 11.942a1.132 1.132 0 01-.331.81z" fill="#fdbe2a"/><path d="M49.478 103.691l7.48-.05.145 21.794-7.48.05zM39.882 127.827l7.48-.05.146 21.794-7.48.05zM39.722 103.756l7.479-.052.153 21.794-7.48.052z" fill="#c4d7e9"/><path d="M77.575 119.874l25.262-.169.065 9.666-25.262.169z" fill="#e8a91b"/><path d="M79.893 149.961a2.609 2.609 0 00.579-5.149 2.655 2.655 0 00-.613-.068 2.609 2.609 0 10.034 5.217z" fill="#e38b34"/><path d="M89.847 14.987L18.713 85.933l.991 5.673 70.626-69.65 70.944 67.043.648-4.023z" fill="#eae4c9"/><g fill="none" stroke="#3e4147" stroke-linecap="round" stroke-linejoin="round" stroke-width="2" transform="translate(-3649.983 -927.161)"><path d="M3740.933 1107.4l56.846-.38 15.343-95.282-73.3-71.182-72.346 72.154 16.614 95.069z"/><path d="M3813.123 1011.733l16.542 3.8-89.589-87.374h-.679l-88.414 88.563 16.49-4.023M3720.99 1107.528l-.465-69.617 39.885-.266.465 69.617"/><path d="M3766.754 954.18l-.118-17.734 19.2-.128.233 34.887M3698.713 1089.319l9.095-.061 5.485-11.494-14.656.1-14.656.1 5.638 11.42z"/><path d="M3708.393 1077.8l-.322-48.141-9.757.065-9.756.065.322 48.141M3698.315 1029.721l.321 48.141M3688.719 1053.857l19.513-.13M3782.908 1088.757l-9.095.061-5.638-11.42 14.656-.1 14.656-.1L3792 1088.7z"/><path d="M3773.075 1077.365l-.322-48.141 9.757-.065 9.756-.065.322 48.141M3782.51 1029.159l.321 48.141M3792.427 1053.164l-19.513.13M3726.413 1045.903l27.54-.184.08 11.943-27.54.184zM3726.693 1087.914l27.54-.184.08 11.943-27.54.184z"/><circle cx="3729.859" cy="1074.514" r="3.747"/><circle cx="3740.461" cy="990.685" r="18.898"/><path d="M3740.335 971.788l.252 37.795M3759.359 990.559l-37.795.252M3766.683 943.65l19.199-.128"/></g></svg>
